<svg width="800" height="800" viewBox="0 0 800 800" fill="none" xmlns="http://www.w3.org/2000/svg">
<g clip-path="url(#clip0_24090_15244)">
<path d="M800 0H0V800H800V0Z" fill="white"/>
<path d="M100.5 327.071C116.157 321.851 133.284 317.855 151.757 315.911C206.224 310.184 238.915 325.932 272.479 343.225C303.586 359.243 335.438 376.565 386.079 379.343C442.975 382.455 484.852 365.062 523.626 347.014C573.106 323.98 617.52 299.878 681.647 315.911C688.196 317.549 694.473 319.479 700.493 321.666" stroke="black" stroke-width="21.4286" stroke-miterlimit="10" stroke-linecap="round"/>
<path d="M100.5 365.771C114.022 369.795 128.568 372.872 144.054 374.503C202.67 380.657 236.07 361.946 272.479 343.221C301.25 328.421 331.905 313.614 378.376 311.078C439.056 307.759 482.652 327.766 523.626 347.018C570.082 368.848 613.163 389.702 673.944 374.51C683.331 372.153 692.188 369.19 700.5 365.792" stroke="black" stroke-width="21.4286" stroke-miterlimit="10" stroke-linecap="round"/>
<g opacity="0.5">
<path d="M100.5 333.126C116.157 327.905 133.284 323.91 151.757 321.965C206.224 316.239 238.915 331.987 272.479 349.28C303.586 365.298 335.438 382.619 386.079 385.397C442.975 388.51 484.852 371.117 523.626 353.069C573.106 330.035 617.52 305.933 681.647 321.965C688.196 323.604 694.473 325.534 700.493 327.72" stroke="black" stroke-width="21.4286" stroke-miterlimit="10" stroke-linecap="round"/>
<path d="M100.5 371.826C114.022 375.85 128.568 378.927 144.054 380.558C202.67 386.711 236.07 368.001 272.479 349.276C301.25 334.476 331.905 319.668 378.376 317.133C439.056 313.814 482.652 333.821 523.626 353.072C570.082 374.902 613.163 395.757 673.944 380.565C683.331 378.207 692.188 375.244 700.5 371.847" stroke="black" stroke-width="21.4286" stroke-miterlimit="10" stroke-linecap="round"/>
</g>
<path d="M90.6322 500V452.545H99.4991V460.269H100.086C101.075 457.653 102.692 455.614 104.937 454.152C107.182 452.669 109.869 451.928 113 451.928C116.172 451.928 118.829 452.669 120.971 454.152C123.134 455.635 124.73 457.674 125.76 460.269H126.254C127.387 457.736 129.189 455.717 131.661 454.214C134.132 452.69 137.078 451.928 140.497 451.928C144.801 451.928 148.313 453.277 151.032 455.975C153.771 458.673 155.141 462.741 155.141 468.178V500H145.903V469.043C145.903 465.83 145.028 463.503 143.277 462.061C141.526 460.619 139.436 459.898 137.005 459.898C133.998 459.898 131.661 460.825 129.992 462.679C128.324 464.512 127.49 466.87 127.49 469.754V500H118.283V468.456C118.283 465.882 117.48 463.812 115.873 462.246C114.267 460.681 112.176 459.898 109.602 459.898C107.851 459.898 106.234 460.362 104.751 461.289C103.289 462.195 102.105 463.462 101.198 465.089C100.313 466.716 99.8698 468.6 99.8698 470.743V500H90.6322ZM171.662 517.795C170.282 517.795 169.025 517.682 167.893 517.456C166.76 517.25 165.915 517.023 165.359 516.776L167.584 509.207C169.273 509.66 170.776 509.855 172.094 509.794C173.413 509.732 174.576 509.238 175.585 508.311C176.615 507.384 177.522 505.87 178.304 503.769L179.447 500.618L162.084 452.545H171.971L183.989 489.372H184.483L196.501 452.545H206.419L186.862 506.333C185.956 508.805 184.802 510.896 183.402 512.605C182.001 514.335 180.333 515.633 178.397 516.498C176.461 517.363 174.216 517.795 171.662 517.795ZM250.66 464.131L242.288 465.614C241.937 464.543 241.381 463.523 240.619 462.555C239.878 461.587 238.868 460.794 237.591 460.176C236.314 459.559 234.718 459.25 232.803 459.25C230.187 459.25 228.004 459.837 226.253 461.011C224.502 462.164 223.627 463.657 223.627 465.49C223.627 467.076 224.214 468.353 225.388 469.321C226.562 470.289 228.457 471.082 231.073 471.7L238.611 473.43C242.977 474.44 246.232 475.995 248.374 478.096C250.516 480.196 251.587 482.925 251.587 486.283C251.587 489.125 250.763 491.658 249.115 493.883C247.488 496.087 245.212 497.817 242.288 499.073C239.383 500.33 236.016 500.958 232.185 500.958C226.871 500.958 222.535 499.825 219.178 497.559C215.821 495.273 213.761 492.029 212.999 487.827L221.928 486.468C222.484 488.795 223.627 490.556 225.357 491.751C227.087 492.925 229.343 493.512 232.123 493.512C235.151 493.512 237.571 492.884 239.383 491.627C241.196 490.35 242.102 488.795 242.102 486.962C242.102 485.479 241.546 484.233 240.434 483.224C239.342 482.215 237.664 481.453 235.398 480.938L227.365 479.177C222.937 478.168 219.662 476.561 217.541 474.357C215.44 472.153 214.389 469.363 214.389 465.985C214.389 463.184 215.172 460.733 216.737 458.632C218.303 456.531 220.465 454.893 223.225 453.719C225.985 452.525 229.147 451.928 232.71 451.928C237.839 451.928 241.876 453.04 244.821 455.264C247.766 457.468 249.713 460.424 250.66 464.131ZM275.554 501.05C272.546 501.05 269.828 500.494 267.397 499.382C264.967 498.249 263.041 496.612 261.62 494.47C260.219 492.328 259.519 489.702 259.519 486.592C259.519 483.914 260.034 481.71 261.064 479.98C262.094 478.25 263.484 476.88 265.235 475.871C266.985 474.862 268.942 474.1 271.105 473.585C273.267 473.07 275.471 472.679 277.716 472.411C280.559 472.081 282.865 471.814 284.637 471.608C286.408 471.381 287.695 471.021 288.499 470.526C289.302 470.032 289.703 469.229 289.703 468.116V467.9C289.703 465.202 288.941 463.112 287.417 461.629C285.914 460.146 283.669 459.404 280.682 459.404C277.572 459.404 275.121 460.094 273.329 461.474C271.558 462.833 270.332 464.347 269.653 466.016L260.971 464.038C262.001 461.155 263.505 458.827 265.482 457.056C267.48 455.264 269.776 453.967 272.371 453.163C274.967 452.339 277.696 451.928 280.559 451.928C282.453 451.928 284.462 452.154 286.583 452.607C288.725 453.04 290.723 453.843 292.577 455.017C294.451 456.191 295.985 457.87 297.18 460.053C298.375 462.216 298.972 465.027 298.972 468.487V500H289.951V493.512H289.58C288.983 494.707 288.087 495.881 286.892 497.034C285.697 498.187 284.163 499.145 282.289 499.907C280.414 500.669 278.169 501.05 275.554 501.05ZM277.562 493.636C280.116 493.636 282.299 493.131 284.111 492.122C285.945 491.113 287.335 489.794 288.282 488.167C289.25 486.52 289.734 484.759 289.734 482.884V476.767C289.405 477.097 288.766 477.406 287.819 477.694C286.892 477.962 285.831 478.199 284.637 478.404C283.442 478.59 282.278 478.765 281.146 478.93C280.013 479.074 279.065 479.197 278.303 479.3C276.511 479.527 274.874 479.908 273.391 480.444C271.929 480.979 270.755 481.751 269.869 482.761C269.004 483.749 268.571 485.067 268.571 486.715C268.571 489.001 269.416 490.732 271.105 491.906C272.794 493.059 274.946 493.636 277.562 493.636ZM311.276 500V452.545H320.143V460.269H320.73C321.718 457.653 323.335 455.614 325.58 454.152C327.825 452.669 330.513 451.928 333.644 451.928C336.816 451.928 339.473 452.669 341.615 454.152C343.777 455.635 345.373 457.674 346.403 460.269H346.898C348.03 457.736 349.833 455.717 352.304 454.214C354.776 452.69 357.721 451.928 361.14 451.928C365.445 451.928 368.957 453.277 371.675 455.975C374.415 458.673 375.784 462.741 375.784 468.178V500H366.547V469.043C366.547 465.83 365.671 463.503 363.921 462.061C362.17 460.619 360.079 459.898 357.649 459.898C354.642 459.898 352.304 460.825 350.636 462.679C348.968 464.512 348.133 466.87 348.133 469.754V500H338.927V468.456C338.927 465.882 338.123 463.812 336.517 462.246C334.91 460.681 332.82 459.898 330.245 459.898C328.495 459.898 326.878 460.362 325.395 461.289C323.932 462.195 322.748 463.462 321.842 465.089C320.956 466.716 320.513 468.6 320.513 470.743V500H311.276ZM401.975 501.05C398.968 501.05 396.25 500.494 393.819 499.382C391.389 498.249 389.463 496.612 388.042 494.47C386.641 492.328 385.941 489.702 385.941 486.592C385.941 483.914 386.456 481.71 387.486 479.98C388.516 478.25 389.906 476.88 391.657 475.871C393.407 474.862 395.364 474.1 397.527 473.585C399.689 473.07 401.893 472.679 404.138 472.411C406.98 472.081 409.287 471.814 411.059 471.608C412.83 471.381 414.117 471.021 414.92 470.526C415.724 470.032 416.125 469.229 416.125 468.116V467.9C416.125 465.202 415.363 463.112 413.839 461.629C412.336 460.146 410.091 459.404 407.104 459.404C403.994 459.404 401.543 460.094 399.751 461.474C397.98 462.833 396.754 464.347 396.075 466.016L387.393 464.038C388.423 461.155 389.926 458.827 391.904 457.056C393.902 455.264 396.198 453.967 398.793 453.163C401.388 452.339 404.117 451.928 406.98 451.928C408.875 451.928 410.883 452.154 413.005 452.607C415.147 453.04 417.145 453.843 418.999 455.017C420.873 456.191 422.407 457.87 423.602 460.053C424.796 462.216 425.394 465.027 425.394 468.487V500H416.372V493.512H416.002C415.404 494.707 414.508 495.881 413.314 497.034C412.119 498.187 410.585 499.145 408.711 499.907C406.836 500.669 404.591 501.05 401.975 501.05ZM403.984 493.636C406.538 493.636 408.721 493.131 410.533 492.122C412.366 491.113 413.757 489.794 414.704 488.167C415.672 486.52 416.156 484.759 416.156 482.884V476.767C415.827 477.097 415.188 477.406 414.241 477.694C413.314 477.962 412.253 478.199 411.059 478.404C409.864 478.59 408.7 478.765 407.567 478.93C406.435 479.074 405.487 479.197 404.725 479.3C402.933 479.527 401.296 479.908 399.813 480.444C398.35 480.979 397.176 481.751 396.291 482.761C395.426 483.749 394.993 485.067 394.993 486.715C394.993 489.001 395.838 490.732 397.527 491.906C399.216 493.059 401.368 493.636 403.984 493.636ZM446.935 471.824V500H437.698V452.545H446.564V460.269H447.152C448.243 457.756 449.953 455.738 452.28 454.214C454.628 452.69 457.584 451.928 461.147 451.928C464.381 451.928 467.213 452.607 469.643 453.967C472.073 455.305 473.958 457.303 475.297 459.96C476.636 462.617 477.305 465.902 477.305 469.816V500H468.067V470.928C468.067 467.488 467.171 464.8 465.379 462.864C463.588 460.908 461.126 459.929 457.996 459.929C455.854 459.929 453.948 460.393 452.28 461.32C450.632 462.246 449.324 463.606 448.356 465.398C447.409 467.169 446.935 469.311 446.935 471.824ZM511.845 452.545V459.96H485.925V452.545H511.845ZM492.876 441.176H502.114V486.066C502.114 487.858 502.381 489.207 502.917 490.114C503.452 490.999 504.142 491.607 504.987 491.936C505.852 492.245 506.789 492.4 507.798 492.4C508.54 492.4 509.188 492.348 509.745 492.245C510.301 492.142 510.733 492.06 511.042 491.998L512.71 499.629C512.175 499.835 511.413 500.041 510.424 500.247C509.436 500.474 508.2 500.597 506.717 500.618C504.286 500.659 502.021 500.227 499.92 499.32C497.819 498.414 496.12 497.013 494.822 495.119C493.525 493.224 492.876 490.845 492.876 487.982V441.176ZM532.321 471.824V500H523.083V436.727H532.197V460.269H532.784C533.897 457.715 535.596 455.686 537.882 454.183C540.168 452.679 543.155 451.928 546.842 451.928C550.096 451.928 552.938 452.597 555.369 453.936C557.82 455.275 559.714 457.272 561.053 459.929C562.413 462.566 563.092 465.861 563.092 469.816V500H553.855V470.928C553.855 467.447 552.959 464.749 551.167 462.833C549.375 460.897 546.883 459.929 543.69 459.929C541.507 459.929 539.55 460.393 537.82 461.32C536.111 462.246 534.762 463.606 533.773 465.398C532.805 467.169 532.321 469.311 532.321 471.824ZM589.229 501.05C586.222 501.05 583.504 500.494 581.073 499.382C578.643 498.249 576.717 496.612 575.296 494.47C573.895 492.328 573.195 489.702 573.195 486.592C573.195 483.914 573.71 481.71 574.74 479.98C575.769 478.25 577.16 476.88 578.91 475.871C580.661 474.862 582.618 474.1 584.78 473.585C586.943 473.07 589.147 472.679 591.392 472.411C594.234 472.081 596.541 471.814 598.312 471.608C600.084 471.381 601.371 471.021 602.174 470.526C602.978 470.032 603.379 469.229 603.379 468.116V467.9C603.379 465.202 602.617 463.112 601.093 461.629C599.589 460.146 597.344 459.404 594.358 459.404C591.248 459.404 588.797 460.094 587.005 461.474C585.234 462.833 584.008 464.347 583.328 466.016L574.647 464.038C575.677 461.155 577.18 458.827 579.158 457.056C581.155 455.264 583.452 453.967 586.047 453.163C588.642 452.339 591.371 451.928 594.234 451.928C596.129 451.928 598.137 452.154 600.259 452.607C602.401 453.04 604.399 453.843 606.252 455.017C608.127 456.191 609.661 457.87 610.856 460.053C612.05 462.216 612.648 465.027 612.648 468.487V500H603.626V493.512H603.256C602.658 494.707 601.762 495.881 600.568 497.034C599.373 498.187 597.839 499.145 595.964 499.907C594.09 500.669 591.845 501.05 589.229 501.05ZM591.238 493.636C593.792 493.636 595.975 493.131 597.787 492.122C599.62 491.113 601.011 489.794 601.958 488.167C602.926 486.52 603.41 484.759 603.41 482.884V476.767C603.081 477.097 602.442 477.406 601.495 477.694C600.568 477.962 599.507 478.199 598.312 478.404C597.118 478.59 595.954 478.765 594.821 478.93C593.689 479.074 592.741 479.197 591.979 479.3C590.187 479.527 588.55 479.908 587.067 480.444C585.604 480.979 584.43 481.751 583.545 482.761C582.68 483.749 582.247 485.067 582.247 486.715C582.247 489.001 583.092 490.732 584.78 491.906C586.469 493.059 588.622 493.636 591.238 493.636ZM631.038 500.587C629.349 500.587 627.897 499.99 626.682 498.795C625.466 497.58 624.859 496.118 624.859 494.408C624.859 492.719 625.466 491.277 626.682 490.083C627.897 488.868 629.349 488.26 631.038 488.26C632.727 488.26 634.179 488.868 635.394 490.083C636.609 491.277 637.217 492.719 637.217 494.408C637.217 495.541 636.928 496.581 636.352 497.528C635.796 498.455 635.054 499.197 634.127 499.753C633.201 500.309 632.171 500.587 631.038 500.587ZM663.4 501.05C660.393 501.05 657.674 500.494 655.244 499.382C652.814 498.249 650.888 496.612 649.467 494.47C648.066 492.328 647.366 489.702 647.366 486.592C647.366 483.914 647.881 481.71 648.911 479.98C649.94 478.25 651.331 476.88 653.081 475.871C654.832 474.862 656.789 474.1 658.951 473.585C661.114 473.07 663.318 472.679 665.563 472.411C668.405 472.081 670.712 471.814 672.483 471.608C674.255 471.381 675.542 471.021 676.345 470.526C677.148 470.032 677.55 469.229 677.55 468.116V467.9C677.55 465.202 676.788 463.112 675.264 461.629C673.76 460.146 671.515 459.404 668.529 459.404C665.419 459.404 662.968 460.094 661.176 461.474C659.405 462.833 658.179 464.347 657.499 466.016L648.818 464.038C649.848 461.155 651.351 458.827 653.329 457.056C655.326 455.264 657.623 453.967 660.218 453.163C662.813 452.339 665.542 451.928 668.405 451.928C670.3 451.928 672.308 452.154 674.43 452.607C676.572 453.04 678.57 453.843 680.423 455.017C682.298 456.191 683.832 457.87 685.027 460.053C686.221 462.216 686.819 465.027 686.819 468.487V500H677.797V493.512H677.427C676.829 494.707 675.933 495.881 674.739 497.034C673.544 498.187 672.01 499.145 670.135 499.907C668.261 500.669 666.016 501.05 663.4 501.05ZM665.408 493.636C667.962 493.636 670.146 493.131 671.958 492.122C673.791 491.113 675.182 489.794 676.129 488.167C677.097 486.52 677.581 484.759 677.581 482.884V476.767C677.251 477.097 676.613 477.406 675.666 477.694C674.739 477.962 673.678 478.199 672.483 478.404C671.289 478.59 670.125 478.765 668.992 478.93C667.859 479.074 666.912 479.197 666.15 479.3C664.358 479.527 662.721 479.908 661.238 480.444C659.775 480.979 658.601 481.751 657.716 482.761C656.851 483.749 656.418 485.067 656.418 486.715C656.418 489.001 657.262 490.732 658.951 491.906C660.64 493.059 662.793 493.636 665.408 493.636ZM699.122 500V452.545H708.36V500H699.122ZM703.788 445.223C702.181 445.223 700.801 444.688 699.648 443.617C698.515 442.525 697.948 441.228 697.948 439.724C697.948 438.2 698.515 436.902 699.648 435.831C700.801 434.74 702.181 434.194 703.788 434.194C705.394 434.194 706.764 434.74 707.897 435.831C709.05 436.902 709.627 438.2 709.627 439.724C709.627 441.228 709.05 442.525 707.897 443.617C706.764 444.688 705.394 445.223 703.788 445.223Z" fill="black"/>
</g>
<defs>
<clipPath id="clip0_24090_15244">
<rect width="800" height="800" fill="white"/>
</clipPath>
</defs>
</svg>
