<svg width="160" height="40" viewBox="0 0 160 40" fill="none" xmlns="http://www.w3.org/2000/svg">
<path d="M4 15.1411C7.96651 13.8194 12.3052 12.8078 16.9851 12.3155C30.7835 10.8657 39.065 14.8526 47.5681 19.2309C55.4485 23.2863 63.5176 27.6718 76.3466 28.3751C90.7604 29.1631 101.369 24.7596 111.192 20.1902C123.727 14.3585 134.978 8.25641 151.224 12.3155C152.883 12.7302 154.473 13.2189 155.998 13.7725" stroke="white" stroke-width="5.42857" stroke-miterlimit="10" stroke-linecap="round"/>
<path d="M4 24.939C7.42554 25.9578 11.1107 26.7368 15.0336 27.1498C29.8831 28.7078 38.3444 23.9707 47.5681 19.23C54.8567 15.4829 62.6227 11.734 74.3951 11.092C89.7674 10.2517 100.812 15.317 111.192 20.1911C122.961 25.718 133.875 30.9979 149.272 27.1516C151.65 26.5547 153.894 25.8046 156 24.9444" stroke="white" stroke-width="5.42857" stroke-miterlimit="10" stroke-linecap="round"/>
<g opacity="0.5">
<path d="M4 16.674C7.96651 15.3523 12.3052 14.3407 16.9851 13.8484C30.7835 12.3986 39.065 16.3855 47.5681 20.7638C55.4485 24.8192 63.5176 29.2047 76.3466 29.9079C90.7604 30.696 101.369 26.2925 111.192 21.7231C123.727 15.8914 134.978 9.78931 151.224 13.8484C152.883 14.2631 154.473 14.7518 155.998 15.3054" stroke="white" stroke-width="5.42857" stroke-miterlimit="10" stroke-linecap="round"/>
<path d="M4 26.4719C7.42554 27.4907 11.1107 28.2697 15.0336 28.6827C29.8831 30.2407 38.3444 25.5036 47.5681 20.7629C54.8567 17.0158 62.6227 13.2668 74.3951 12.6249C89.7674 11.7846 100.812 16.8499 111.192 21.724C122.961 27.2509 133.875 32.5308 149.272 28.6845C151.65 28.0876 153.894 27.3375 156 26.4773" stroke="white" stroke-width="5.42857" stroke-miterlimit="10" stroke-linecap="round"/>
</g>
</svg>
